<svg width="792" height="202" viewBox="0 0 792 202" fill="none" xmlns="http://www.w3.org/2000/svg">
<path d="M98.362 40.502C86.6147 40.502 76.796 43.132 68.906 48.392C61.016 53.4767 55.0547 60.6653 51.022 69.958C46.9893 79.2507 44.973 90.209 44.973 102.833C44.973 115.808 47.2523 126.678 51.811 135.445C56.3697 144.212 62.594 150.787 70.484 155.17C78.5493 159.378 87.7543 161.482 98.099 161.482C106.866 161.482 114.317 160.342 120.454 158.063C126.591 155.784 131.5 152.628 135.182 148.595C139.039 144.562 141.845 140.004 143.598 134.919C145.527 129.834 146.491 124.574 146.491 119.139V103.622L166.742 123.873H94.68V86.527H186.204V198.302H149.647L146.228 171.739L150.962 175.684C148.157 180.769 143.773 185.24 137.812 189.097C132.026 192.954 125.188 195.935 117.298 198.039C109.583 200.143 101.343 201.195 92.576 201.195C74.5167 201.195 58.4737 197.075 44.447 188.834C30.5957 180.418 19.725 168.758 11.835 153.855C3.945 138.952 0 121.506 0 101.518C0 81.8807 4.12033 64.5227 12.361 49.444C20.6017 34.19 32.1737 22.2673 47.077 13.676C61.9803 4.90933 79.426 0.525993 99.414 0.525993C115.019 0.525993 129.045 3.41899 141.494 9.20499C154.118 14.8157 164.375 22.881 172.265 33.401C180.155 43.7457 184.801 55.9313 186.204 69.958H141.494C139.039 59.6133 133.779 52.1617 125.714 47.603C117.649 42.869 108.531 40.502 98.362 40.502Z" fill="#B9860B"></path>
<path d="M192.29 132.289C192.29 118.438 195.359 106.34 201.495 95.995C207.807 85.475 216.399 77.322 227.269 71.536C238.315 65.75 250.852 62.857 264.878 62.857C278.905 62.857 291.354 65.75 302.224 71.536C313.095 77.322 321.599 85.475 327.735 95.995C334.047 106.34 337.203 118.438 337.203 132.289C337.203 146.14 334.047 158.238 327.735 168.583C321.599 178.928 313.095 186.993 302.224 192.779C291.354 198.565 278.905 201.458 264.878 201.458C250.852 201.458 238.315 198.565 227.269 192.779C216.399 186.993 207.807 178.928 201.495 168.583C195.359 158.238 192.29 146.14 192.29 132.289ZM233.055 132.026C233.055 138.689 234.37 144.562 237 149.647C239.806 154.556 243.575 158.414 248.309 161.219C253.043 163.849 258.566 165.164 264.878 165.164C271.19 165.164 276.713 163.849 281.447 161.219C286.181 158.414 289.863 154.556 292.493 149.647C295.123 144.562 296.438 138.689 296.438 132.026C296.438 125.363 295.123 119.577 292.493 114.668C289.863 109.759 286.181 105.989 281.447 103.359C276.713 100.554 271.19 99.151 264.878 99.151C258.566 99.151 253.043 100.554 248.309 103.359C243.575 105.989 239.806 109.759 237 114.668C234.37 119.577 233.055 125.363 233.055 132.026Z" fill="#B9860B"></path>
<path d="M384.186 198.302H343.684V0H384.186V198.302Z" fill="#B9860B"></path>
<path d="M452.801 201.721C440.177 201.721 429.219 198.916 419.926 193.305C410.633 187.694 403.357 179.804 398.097 169.635C393.013 159.29 390.47 147.192 390.47 133.341C390.47 119.314 393.1 107.041 398.36 96.521C403.62 85.8257 411.072 77.4973 420.715 71.536C430.534 65.5747 442.106 62.594 455.431 62.594C463.672 62.594 471.299 64.0843 478.312 67.065C485.501 70.0457 491.024 73.9907 494.881 78.9V0H535.383V198.302H497.248L495.144 181.47C491.637 187.431 486.027 192.341 478.312 196.198C470.773 199.88 462.269 201.721 452.801 201.721ZM462.532 164.638C468.844 164.638 474.367 163.323 479.101 160.693C484.01 157.888 487.78 154.03 490.41 149.121C493.215 144.036 494.618 138.25 494.618 131.763C494.618 125.1 493.215 119.314 490.41 114.405C487.78 109.496 484.01 105.726 479.101 103.096C474.367 100.291 468.844 98.888 462.532 98.888C456.22 98.888 450.697 100.291 445.963 103.096C441.229 105.901 437.547 109.759 434.917 114.668C432.462 119.577 431.235 125.276 431.235 131.763C431.235 138.25 432.462 143.949 434.917 148.858C437.547 153.767 441.229 157.625 445.963 160.43C450.697 163.235 456.22 164.638 462.532 164.638Z" fill="#B9860B"></path>
<path d="M574.047 201.721C567.384 201.721 561.686 199.442 556.952 194.883C552.218 190.149 549.851 184.538 549.851 178.051C549.851 171.388 552.218 165.778 556.952 161.219C561.686 156.485 567.384 154.118 574.047 154.118C580.534 154.118 586.145 156.485 590.879 161.219C595.788 165.778 598.243 171.388 598.243 178.051C598.243 184.538 595.788 190.149 590.879 194.883C586.145 199.442 580.534 201.721 574.047 201.721Z" fill="#B9860B"></path>
<path d="M660.305 3.682V198.302H617.699V3.682H660.305ZM741.572 43.132H621.644V3.682H741.572V43.132ZM728.685 122.295H620.592V83.897H728.685V122.295Z" fill="#E8C468"></path>
<path d="M748.776 198.302V66.802H789.278V198.302H748.776ZM768.764 46.288C762.277 46.288 756.754 44.0963 752.195 39.713C747.812 35.1543 745.62 29.6313 745.62 23.144C745.62 16.6567 747.812 11.2213 752.195 6.83799C756.754 2.45466 762.277 0.262997 768.764 0.262997C775.076 0.262997 780.424 2.45466 784.807 6.83799C789.366 11.2213 791.645 16.6567 791.645 23.144C791.645 29.6313 789.366 35.1543 784.807 39.713C780.424 44.0963 775.076 46.288 768.764 46.288Z" fill="#E8C468"></path>
</svg>